<svg width="201" height="319" viewBox="0 0 201 319" fill="none" xmlns="http://www.w3.org/2000/svg">
<g opacity="0.03">
<path fill-rule="evenodd" clip-rule="evenodd" d="M298.434 82.8224L169.168 31.596L130.836 62.6317L175.468 80.3186L132.927 114.091L177.646 131.777L220.157 98.0283L259.622 113.668L298.434 82.8224Z" fill="white"/>
<path fill-rule="evenodd" clip-rule="evenodd" d="M175.438 64.2861L86.8867 29.1943L73.6027 39.9509L161.986 74.976L175.438 64.2861Z" fill="white"/>
<path fill-rule="evenodd" clip-rule="evenodd" d="M65.7021 60.7979L85.6422 199.192L131.373 216.913L124.488 169.131L174.664 189.138L167.734 141.28L117.595 121.287L111.508 79.0353L65.7021 60.7979Z" fill="white"/>
<path fill-rule="evenodd" clip-rule="evenodd" d="M110.692 177.243L124.352 272.046L140.201 278.189L126.568 183.564L110.692 177.243Z" fill="white"/>
<path fill-rule="evenodd" clip-rule="evenodd" d="M163.51 275.359L272.836 188.193L265.438 139.434L227.691 169.531L220.057 115.751L182.268 145.923L189.895 199.665L156.518 226.276L163.51 275.359Z" fill="white"/>
</g>
</svg>
