<svg width="71" height="67" viewBox="0 0 71 67" fill="none" xmlns="http://www.w3.org/2000/svg">
<g id="Group">
<g id="Group_2">
<path id="Vector" fill-rule="evenodd" clip-rule="evenodd" d="M62.7469 0H23.9376L17.1826 11.9947H30.5823L23.0166 25.1324L36.4387 25.123L43.9992 11.9947H55.8475L62.7469 0Z" fill="#00A3A9"/>
<path id="Vector_2" fill-rule="evenodd" clip-rule="evenodd" d="M28.9264 7.83789H2.34085L0 11.995H26.5351L28.9264 7.83789Z" fill="#00A3A9"/>
</g>
<g id="Group_3">
<path id="Vector_3" fill-rule="evenodd" clip-rule="evenodd" d="M0.0927734 18.2168L19.4975 52.0766L33.186 51.9726L26.486 40.282L41.563 40.3141L34.8438 28.6085L19.7777 28.5764L13.8537 18.2389L0.0927734 18.2168Z" fill="#049393"/>
<path id="Vector_4" fill-rule="evenodd" clip-rule="evenodd" d="M23.7402 43.8057L37.0331 67.0004L41.7772 66.9646L28.5095 43.8133L23.7402 43.8057Z" fill="#049393"/>
</g>
<g id="Group_4">
<path id="Vector_5" fill-rule="evenodd" clip-rule="evenodd" d="M47.5344 63.8339L66.9389 29.9744L60.0055 18.0834L53.3058 29.7743L45.7948 16.6045L39.0918 28.3192L46.5972 41.4798L40.6729 51.8171L47.5344 63.8339Z" fill="#33B7BC"/>
<path id="Vector_6" fill-rule="evenodd" clip-rule="evenodd" d="M57.7071 30.4075L70.9997 7.21302L68.5968 3.0918L55.3291 26.2428L57.7071 30.4075Z" fill="#33B7BC"/>
</g>
</g>
</svg>
