<svg width="124" height="27" viewBox="0 0 124 27" fill="none" xmlns="http://www.w3.org/2000/svg">
<g id="logo (1) 1" clip-path="url(#clip0_114_11)">
<path id="Vector" fill-rule="evenodd" clip-rule="evenodd" d="M7.83249 0.461914H26.5147C26.9605 0.461914 27.3723 0.697187 27.5946 1.07888L33.0375 10.4239C33.3198 10.9085 33.2359 11.5202 32.8333 11.9132L17.8516 26.5369C17.3663 27.0106 16.5856 27.0106 16.1002 26.5369L1.13878 11.9329C0.72682 11.5308 0.649678 10.9013 0.952617 10.4137L6.77065 1.0489C6.99723 0.684184 7.39932 0.461914 7.83249 0.461914ZM24.1025 4.63413V7.25619H18.7807V9.07416C22.5184 9.26843 25.3226 10.0663 25.3435 11.0227L25.3433 13.0165C25.3225 13.9729 22.5184 14.7708 18.7807 14.9651V19.4265H15.2469V14.9651C11.5093 14.7708 8.70501 13.9729 8.68421 13.0165L8.68433 11.0227C8.70513 10.0663 11.5093 9.26843 15.2469 9.07416V7.25619H9.92513V4.63413H24.1025ZM17.0138 13.5953C21.0026 13.5953 24.3366 12.9206 25.1525 12.0196C24.4606 11.2555 21.9579 10.6542 18.7807 10.4891V12.3925C18.2112 12.4221 17.6201 12.4377 17.0138 12.4377C16.4076 12.4377 15.8164 12.4221 15.2469 12.3925V10.4891C12.0697 10.6542 9.56709 11.2555 8.8752 12.0196C9.69112 12.9206 13.0251 13.5953 17.0138 13.5953Z" fill="#009393"/>
<path id="Vector_2" d="M40.3316 5.53301L44.6502 5.05316V9.19184H48.399V12.7907H44.6202V18.3689C44.6202 19.6885 45.18 20.3483 46.2997 20.3483C47.0194 20.3483 47.6192 20.2283 48.0991 19.9884L49.0888 23.5872C48.1091 23.9671 47.0694 24.1871 45.9698 24.247C44.2303 24.327 42.8508 23.9171 41.8311 23.0174C40.8314 22.0977 40.3316 20.5482 40.3316 18.3689V12.7907H37.6924V9.19184H40.3316V5.53301Z" fill="#009393"/>
<path id="Vector_3" d="M64.562 17.9191H53.6755C53.7954 18.6788 54.2053 19.3086 54.9051 19.8084C55.6049 20.2883 56.5346 20.5282 57.6942 20.5282C59.3537 20.5282 60.6332 20.1383 61.533 19.3586L63.9622 22.0577C62.4827 23.5173 60.3633 24.247 57.6042 24.247C54.9651 24.247 52.9157 23.5373 51.4562 22.1177C50.0166 20.6982 49.2969 18.7788 49.2969 16.3595C49.2969 14.0803 50.0066 12.2409 51.4262 10.8413C52.8457 9.42176 54.7551 8.71198 57.1544 8.71198C59.7735 8.71198 61.7729 9.51173 63.1524 11.1112C64.552 12.7107 65.0219 14.98 64.562 17.9191ZM53.6755 14.7701H60.6932C60.6532 14.0103 60.2934 13.4305 59.6136 13.0306C58.9338 12.6107 58.1141 12.4008 57.1544 12.4008C56.2946 12.4008 55.5549 12.6107 54.9351 13.0306C54.3153 13.4505 53.8954 14.0303 53.6755 14.7701Z" fill="#009393"/>
<path id="Vector_4" d="M68.1625 5.53301L72.4812 5.05316V9.19184H76.23V12.7907H72.4512V18.3689C72.4512 19.6885 73.011 20.3483 74.1306 20.3483C74.8504 20.3483 75.4502 20.2283 75.9301 19.9884L76.9198 23.5872C75.9401 23.9671 74.9004 24.1871 73.8008 24.247C72.0613 24.327 70.6817 23.9171 69.6621 23.0174C68.6624 22.0977 68.1625 20.5482 68.1625 18.3689V12.7907H65.5234V9.19184H68.1625V5.53301Z" fill="#009393"/>
<path id="Vector_5" d="M78.5391 2.92383H82.8877V10.9313C83.9474 9.55172 85.4469 8.86194 87.3863 8.86194C91.325 8.86194 93.2944 11.2312 93.2944 15.9697V23.9171H88.9758V15.9997C88.9758 14.98 88.7159 14.1902 88.196 13.6304C87.6962 13.0706 87.0164 12.7907 86.1567 12.7907C85.217 12.7907 84.4272 13.1106 83.7874 13.7504C83.1676 14.3902 82.8577 15.2799 82.8577 16.4195V23.9171H78.5391V2.92383Z" fill="#009393"/>
<path id="Vector_6" d="M110.231 17.9191H99.3444C99.4644 18.6788 99.8743 19.3086 100.574 19.8084C101.274 20.2883 102.204 20.5282 103.364 20.5282C105.023 20.5282 106.303 20.1383 107.202 19.3586L109.632 22.0577C108.152 23.5173 106.033 24.247 103.274 24.247C100.634 24.247 98.5847 23.5373 97.1251 22.1177C95.6856 20.6982 94.9658 18.7788 94.9658 16.3595C94.9658 14.0803 95.6756 12.2409 97.0952 10.8413C98.5147 9.42176 100.424 8.71198 102.824 8.71198C105.443 8.71198 107.442 9.51173 108.822 11.1112C110.221 12.7107 110.691 14.98 110.231 17.9191ZM99.3444 14.7701H106.363C106.323 14.0103 105.963 13.4305 105.283 13.0306C104.603 12.6107 103.783 12.4008 102.824 12.4008C101.964 12.4008 101.224 12.6107 100.604 13.0306C99.9842 13.4505 99.5644 14.0303 99.3444 14.7701Z" fill="#009393"/>
<path id="Vector_7" d="M112.022 9.13185H116.041L116.371 10.7513C117.311 9.43176 118.63 8.77197 120.33 8.77197C121.729 8.77197 122.939 9.22182 123.959 10.1215L122.159 13.5404C121.459 13.0406 120.67 12.7907 119.79 12.7907C118.81 12.7907 117.991 13.1006 117.331 13.7204C116.671 14.3202 116.341 15.1499 116.341 16.2096V23.9171H112.022V9.13185Z" fill="#009393"/>
</g>
<defs>
<clipPath id="clip0_114_11">
<rect width="124" height="27" fill="white"/>
</clipPath>
</defs>
</svg>
