<svg width="22" height="22" viewBox="0 0 22 22" fill="none" xmlns="http://www.w3.org/2000/svg">
<g id="telegram (2) 1">
<g id="Group">
<path id="Vector" fill-rule="evenodd" clip-rule="evenodd" d="M7.15903 13.278L2.88775 11.4343C2.43917 11.2402 2.15402 10.7925 2.16849 10.3039C2.18382 9.81535 2.4945 9.3855 2.95415 9.21952C6.07206 8.09084 15.5024 4.67586 18.2347 3.68593C18.6484 3.53697 19.1106 3.6272 19.4374 3.92086C19.7643 4.21537 19.9022 4.66565 19.7975 5.09295C19.1897 7.55119 17.3103 15.1591 16.7366 17.4812C16.637 17.8855 16.3332 18.2081 15.9365 18.3324C15.539 18.4575 15.1057 18.3656 14.7934 18.0906L11.895 15.5447L9.62662 17.7195C9.30061 18.0319 8.82736 18.1332 8.40176 17.9825C7.97702 17.831 7.67401 17.4531 7.61868 17.0054L7.15903 13.278ZM15.3832 16.5704L18.1564 5.34405L4.28372 10.3678L7.94554 11.9493C8.33368 12.117 8.60435 12.4779 8.65628 12.8975L9.05634 16.144L10.7323 14.5378L10.5842 14.4101C10.328 14.1913 10.1774 13.8747 10.168 13.5385C10.1578 13.2022 10.2914 12.8779 10.534 12.6447C11.4439 11.7722 13.8715 9.44593 13.8715 9.44593C14.1771 9.15312 14.6623 9.16334 14.9551 9.46892C15.247 9.77364 15.2368 10.2588 14.9321 10.5516L11.8661 13.4908L12.3709 13.9232L15.3832 16.5704Z" fill="white"/>
</g>
</g>
</svg>
