<svg width="26" height="26" viewBox="0 0 26 26" fill="none" xmlns="http://www.w3.org/2000/svg">
<g id="tiktok-social-media-video-logo 1" clip-path="url(#clip0_194_244)">
<path id="Vector" fill-rule="evenodd" clip-rule="evenodd" d="M13.4062 2.43799C13.2985 2.43799 13.1952 2.48079 13.119 2.55698C13.0428 2.63316 13 2.73649 13 2.84424V17.4692C13 18.5905 12.09 19.5005 10.9688 19.5005C9.8475 19.5005 8.9375 18.5905 8.9375 17.4692C8.9375 16.348 9.8475 15.438 10.9688 15.438C11.0765 15.438 11.1798 15.3952 11.256 15.319C11.3322 15.2428 11.375 15.1395 11.375 15.0317V11.7817C11.375 11.674 11.3322 11.5707 11.256 11.4945C11.1798 11.4183 11.0765 11.3755 10.9688 11.3755C7.605 11.3755 4.875 14.1059 4.875 17.4692C4.875 20.833 7.605 23.563 10.9688 23.563C14.3321 23.563 17.0625 20.833 17.0625 17.4692V9.95118C17.9559 10.3556 18.9256 10.5642 19.9062 10.563H20.7188C20.8265 10.563 20.9298 10.5202 21.006 10.444C21.0822 10.3678 21.125 10.2645 21.125 10.1567V6.90674C21.125 6.79899 21.0822 6.69566 21.006 6.61948C20.9298 6.54329 20.8265 6.50049 20.7188 6.50049H19.9062C18.3369 6.50049 17.0625 5.22608 17.0625 3.65674V2.84424C17.0625 2.73649 17.0197 2.63316 16.9435 2.55698C16.8673 2.48079 16.764 2.43799 16.6562 2.43799H13.4062Z" fill="#33B7BC"/>
</g>
<defs>
<clipPath id="clip0_194_244">
<rect width="26" height="26" fill="white"/>
</clipPath>
</defs>
</svg>
