<svg width="22" height="22" viewBox="0 0 22 22" fill="none" xmlns="http://www.w3.org/2000/svg">
<g id="whatsapp (4) 1">
<path id="Vector" d="M15.2163 12.8335C15.033 12.7418 13.8413 12.1918 13.658 12.1001C13.4747 12.0085 13.2913 12.0085 13.108 12.1918C12.9247 12.3751 12.558 12.9251 12.3747 13.1085C12.283 13.2918 12.0997 13.2918 11.9163 13.2001C11.2747 12.9251 10.633 12.5585 10.083 12.1001C9.62467 11.6418 9.16634 11.0918 8.79967 10.5418C8.70801 10.3585 8.79967 10.1751 8.89134 10.0835C8.98301 9.9918 9.07468 9.80846 9.25801 9.7168C9.34968 9.62513 9.44134 9.4418 9.44134 9.35013C9.53301 9.25846 9.53301 9.07513 9.44134 8.98346C9.34967 8.8918 8.89134 7.7918 8.70801 7.33346C8.61634 6.6918 8.43301 6.6918 8.24967 6.6918H7.79134C7.60801 6.6918 7.33301 6.87513 7.24134 6.9668C6.69134 7.5168 6.41634 8.15846 6.41634 8.8918C6.50801 9.7168 6.78301 10.5418 7.33301 11.2751C8.34134 12.7418 9.62467 13.9335 11.183 14.6668C11.6413 14.8501 12.008 15.0335 12.4663 15.1251C12.9247 15.3085 13.383 15.3085 13.933 15.2168C14.5747 15.1251 15.1247 14.6668 15.4913 14.1168C15.6747 13.7501 15.6747 13.3835 15.583 13.0168L15.2163 12.8335ZM17.508 4.4918C13.933 0.916797 8.15801 0.916797 4.58301 4.4918C1.64967 7.42513 1.09967 11.9168 3.11634 15.4918L1.83301 20.1668L6.69134 18.8835C8.06634 19.6168 9.53301 19.9835 10.9997 19.9835C16.0413 19.9835 20.0747 15.9501 20.0747 10.9085C20.1663 8.52513 19.158 6.23346 17.508 4.4918ZM15.033 17.3251C13.8413 18.0585 12.4663 18.5168 10.9997 18.5168C9.62467 18.5168 8.34134 18.1501 7.14967 17.5085L6.87467 17.3251L4.03301 18.0585L4.76634 15.3085L4.58301 15.0335C2.38301 11.3668 3.48301 6.78346 7.05801 4.4918C10.633 2.20013 15.2163 3.3918 17.4163 6.87513C19.6163 10.4501 18.608 15.1251 15.033 17.3251Z" fill="white"/>
</g>
</svg>
