<svg width="26" height="26" viewBox="0 0 26 26" fill="none" xmlns="http://www.w3.org/2000/svg">
<g id="youtube 1">
<path id="Vector" d="M25.241 7.90817C25.241 7.6915 24.916 5.95817 24.1577 5.19984C23.1827 4.1165 22.0993 4.00817 21.5577 4.00817H21.4493C18.091 3.7915 13.1077 3.7915 12.9993 3.7915C12.9993 3.7915 7.90768 3.7915 4.54935 4.00817H4.44102C3.89935 4.00817 2.81602 4.1165 1.84102 5.19984C1.08268 6.0665 0.757682 7.79984 0.757682 8.0165C0.757682 8.12484 0.541016 10.0748 0.541016 12.1332V13.9748C0.541016 16.0332 0.757682 17.9832 0.757682 18.0915C0.757682 18.3082 1.08268 20.0415 1.84102 20.7998C2.70768 21.7748 3.79102 21.8832 4.44102 21.9915H4.76602C6.71602 22.2082 12.6743 22.2082 12.891 22.2082C12.891 22.2082 17.9827 22.2082 21.341 21.9915H21.4493C21.991 21.8832 23.0743 21.7748 24.0493 20.7998C24.8077 19.9332 25.1327 18.1998 25.1327 17.9832C25.1327 17.8748 25.3493 15.9248 25.3493 13.8665V12.0248C25.4577 10.0748 25.241 8.0165 25.241 7.90817ZM17.2243 13.2165L10.7243 16.6832C10.616 16.6832 10.616 16.7915 10.5077 16.7915C10.3993 16.7915 10.291 16.7915 10.291 16.6832C10.1827 16.5748 10.0743 16.4665 10.0743 16.2498V9.20817C10.0743 8.9915 10.1827 8.88317 10.291 8.77484C10.3993 8.6665 10.616 8.6665 10.8327 8.77484L17.3327 12.2415C17.5493 12.3498 17.6577 12.4582 17.6577 12.6748C17.6577 12.8915 17.441 13.1082 17.2243 13.2165Z" fill="#33B7BC"/>
</g>
</svg>
